<?xml version="1.0" encoding="UTF-8"?><svg id="Layer_1" xmlns="http://www.w3.org/2000/svg" viewBox="0 0 1931.01 1005.09"><path d="m1517.18,680.1l143.93,289.34,269.9-805.55-345.58,336.83,32.24,67.3,128.17-112.82-91.43,302.17-210.02-437.95-122.8,139.88,37.03,64.34,62.78-55.42,62.79,131.58-84.21,81.23L966.32,0l-439.33,672.98-87.02-82.8,61.74-130.44,57.86,56.54,45.99-63.58-118.47-142.1-213.72,434.05-96.66-303.9,129.1,115.19,36.51-66.67L0,146.11l251.81,810.35,146.16-286.67,244.14,244.26-167.59-6.54,33.64-66.69-51.6-51.48-121.03,178.89,497.55,34.58-251.54-268.33,65.98-95.4,318.24,364.87,307.87-359.1,65.27,96.61-259.29,263.62,501.42-25.38-112.49-181.04-57.11,50.48,37.87,67.35-173.43,3.4,241.34-239.79Zm-551.01,199.01l-258.06-309.33,258.06-399.64,256.73,399.02-256.73,309.95Z" fill="#339" stroke-width="0"/></svg>